<?xml version="1.0" encoding="iso-8859-1"?>
<!-- Generator: Adobe Illustrator 19.0.0, SVG Export Plug-In . SVG Version: 6.00 Build 0)  -->
<svg version="1.1" id="Capa_1" xmlns="http://www.w3.org/2000/svg" xmlns:xlink="http://www.w3.org/1999/xlink" x="0px" y="0px"
	 viewBox="0 0 512 512" style="enable-background:new 0 0 512 512;" xml:space="preserve" fill="hotpink">
<g>
	<g>
		<path d="M106,286c-24.814,0-45,20.186-45,45c0,24.814,20.186,45,45,45c24.814,0,45-20.186,45-45C151,306.186,130.814,286,106,286z
			"/>
	</g>
</g>
<g>
	<g>
		<path d="M406,286c-24.814,0-45,20.186-45,45c0,24.814,20.186,45,45,45c24.814,0,45-20.186,45-45C451,306.186,430.814,286,406,286z
			"/>
	</g>
</g>
<g>
	<g>
		<path d="M406,226c-7.703,0-15.167,0.95-22.403,2.532L337.65,106H421c0,16.538-13.462,30-30,30c-8.291,0-15,6.709-15,15
			s6.709,15,15,15c33.091,0,60-26.909,60-60V91c0-8.291-6.709-15-15-15H316c-10.417,0-17.732,10.439-14.048,20.273L328.098,166H211
			v-30h15c8.291,0,15-6.709,15-15s-6.709-15-15-15h-60c-8.291,0-15,6.709-15,15s6.709,15,15,15h15v40.845l-34.402,57.349
			C134.099,228.932,120.388,226,106,226C48.109,226,0,273.109,0,331s48.109,105,106,105c44.205,0,81.943-27.552,97.401-66.313
			C210.068,373.598,217.727,376,226,376c23.102,0,41.971-17.563,44.495-40.003l74.678-124.462l10.466,27.913
			C323.245,257.349,301,291.449,301,331c0,57.891,47.109,105,105,105s106-47.109,106-105S463.891,226,406,226z M106,406
			c-41.353,0-76-33.647-76-75c0-41.353,34.647-75,76-75c41.353,0,75,33.647,75,75C181,372.353,147.353,406,106,406z
			 M257.661,299.076C249.524,291.006,238.339,286,226,286c-8.273,0-15.932,2.402-22.599,6.313
			c-6.663-16.707-17.628-31.033-31.34-42.248L204.496,196h115.005L257.661,299.076z M406,406c-41.353,0-75-33.647-75-75
			c0-41.353,33.647-75,75-75c41.353,0,76,33.647,76,75C482,372.353,447.353,406,406,406z"/>
	</g>
</g>
<g>
</g>
<g>
</g>
<g>
</g>
<g>
</g>
<g>
</g>
<g>
</g>
<g>
</g>
<g>
</g>
<g>
</g>
<g>
</g>
<g>
</g>
<g>
</g>
<g>
</g>
<g>
</g>
<g>
</g>
</svg>
