<svg xmlns="http://www.w3.org/2000/svg" viewBox="0 0 23.83 64"><defs><style>.cls-1{fill:#fff;}.cls-2{fill:#3fffec;}</style></defs><g id="Layer_2" data-name="Layer 2"><g id="Layer_1-2" data-name="Layer 1"><g id="Laag_2" data-name="Laag 2"><g id="Laag_1-2" data-name="Laag 1-2"><circle class="cls-1" cx="11.62" cy="5.23" r="5.23"/><path class="cls-1" d="M5.43,61.2a2.94,2.94,0,0,0,5.87,0V36.59h1.28V61.2a2.94,2.94,0,0,0,5.87,0V18.77h1.28V34.41c0,3.14,4.11,3.14,4.1,0v-16c0-3.48-2-6.9-6.08-6.9H6c-3.71,0-6,3-6,6.8v16a2.08,2.08,0,1,0,4.12,0V18.77H5.44Z"/></g></g><polyline class="cls-2" points="6.39 4.89 9.06 6.72 14.4 6.83 16.85 4.84 15.84 6.68 14.45 9.12 9.28 9.12 6.39 4.89"/></g></g></svg>