<svg xmlns="http://www.w3.org/2000/svg" viewBox="0 0 31.34 64"><defs><style>.cls-1{fill:#fff;}</style></defs><g id="Layer_2" data-name="Layer 2"><g id="Layer_1-2" data-name="Layer 1"><g id="Laag_2" data-name="Laag 2"><g id="Laag_1-2" data-name="Laag 1-2"><ellipse class="cls-1" cx="15.67" cy="4.27" rx="4.23" ry="4.27"/><path class="cls-1" d="M30.13,24h0a2.16,2.16,0,0,1-1,2.49,2.61,2.61,0,0,1-1.2.28A2.33,2.33,0,0,1,26,25.57h0l-.62-1.18-.13-.26-.17-.28H20.62l0-.07-.14-.2,0,0h0a1.92,1.92,0,0,1-.13-.17v0l-.08-.09a1.68,1.68,0,0,0-.18-.21l0,0,0,0-.15-.16-.09-.09-.17-.16-.05,0-.08-.07h0l-.15-.12-.13-.1L19,22.13h0a3,3,0,0,0-.33-.21l-.28-.16h0l-.3-.15-.16-.06-.16-.07-.21-.08-.16,0-.33-.09H17l-.28-.05-.33-.05h-.16l-.2,0h-.7a.68.68,0,0,0-.2,0H15l-.33.05-.27.05h-.08l-.33.09-.16.06-.16.06-.16.06-.16.07-.3.15h0l-.28.16-.33.2h0l-.15.12-.13.1-.15.11h0a.6.6,0,0,0-.08.08l0,0a1.29,1.29,0,0,0-.17.16l-.09.09-.16.16,0,0s0,0-.05.05a1.63,1.63,0,0,0-.17.2l-.08.1h0l-.13.18h0l0,0-.14.21,0,.07H6.29l-.17.28L6,24.36l-.62,1.21h0a2.31,2.31,0,0,1-1.93,1.16,2.61,2.61,0,0,1-1.2-.28,2.16,2.16,0,0,1-1-2.49h0A1.84,1.84,0,0,0,.1,26.29a1.82,1.82,0,0,0,1.71,1.22H9.57a7.37,7.37,0,0,0,.17,1H9.41a3.07,3.07,0,0,0-3.07,3.09V48.49a3.08,3.08,0,0,0,3.07,3.09h2.73v-8a3.57,3.57,0,0,1,3.5-3.57h0a3.56,3.56,0,0,1,3.5,3.56v8h2.74A3.07,3.07,0,0,0,25,48.48V31.62a3.07,3.07,0,0,0-3.07-3.09h-.33a5.15,5.15,0,0,0,.17-1h7.77a1.83,1.83,0,0,0,.6-3.55ZM15.69,29.78h0a2.81,2.81,0,0,1,0-5.62h0A2.82,2.82,0,0,1,17.56,29,2.74,2.74,0,0,1,15.69,29.78Z"/><path class="cls-1" d="M18.09,61.56A2.42,2.42,0,0,1,15.68,64h0a2.42,2.42,0,0,1-2.41-2.44h0V44a2.44,2.44,0,0,1,2.39-2.43h0A2.42,2.42,0,0,1,18.07,44Z"/><path class="cls-1" d="M2.49,26a2,2,0,0,0,.94.23,1.76,1.76,0,0,0,1.45-.87l.61-1.19.15-.28.15-.28,4.67-9v8.63a6.34,6.34,0,0,1,8.89-1.56,6.56,6.56,0,0,1,1.55,1.56V14.61l4.65,9,.15.28.14.28.63,1.19a1.74,1.74,0,0,0,1.45.87,2.07,2.07,0,0,0,.94-.23,1.6,1.6,0,0,0,.75-1.82.52.52,0,0,0-.06-.16l-.06-.13-.15-.28c-1.07-2-5.81-11-6.8-13C22,9.49,21.21,9.48,19,9.48H12.36c-2.22,0-3.06,0-3.56,1.09-1,2-5.73,11-6.8,13l-.14.28L1.79,24l-.06.16A1.61,1.61,0,0,0,2.49,26Z"/></g></g></g></g></svg>